<svg fill="#333" xmlns:x="http://ns.adobe.com/Extensibility/1.0/" xmlns:i="http://ns.adobe.com/AdobeIllustrator/10.0/" xmlns:graph="http://ns.adobe.com/Graphs/1.0/" xmlns="http://www.w3.org/2000/svg" xmlns:xlink="http://www.w3.org/1999/xlink" version="1.1" x="0px" y="0px" viewBox="0 0 100 100" enable-background="new 0 0 100 100" xml:space="preserve"><metadata><sfw xmlns="http://ns.adobe.com/SaveForWeb/1.0/"><slices/><sliceSourceBounds width="1447.2" height="1444.2" x="1" y="-1446.1" bottomLeftOrigin="true"/></sfw></metadata><path d="M92.9,57.5L13.4,90.7c-1,0.4-2.1,0.6-3.2,0.6c-2.2,0-4.3-0.9-5.9-2.6C2,86.2,1.5,82.6,3,79.5l12.7-25.8  c0.6-1.2,2.1-1.8,3.3-1.1c1.2,0.6,1.8,2.1,1.1,3.3L7.5,81.7c-0.9,1.8,0.2,3.2,0.5,3.6c0.4,0.4,1.6,1.5,3.5,0.8l79.4-33.1  c1.8-0.8,1.9-2.4,1.9-2.9s-0.1-2.2-1.9-2.9L11.5,14c-1.9-0.8-3.2,0.4-3.5,0.8c-0.4,0.4-1.4,1.7-0.5,3.6l12,24.5L63,46.4  c1.4,0.1,2.4,1.3,2.3,2.7c-0.1,1.4-1.3,2.4-2.7,2.3l-44.9-3.7c-0.9-0.1-1.7-0.6-2-1.4L3,20.5c-1.5-3.1-1-6.7,1.4-9.2  c2.4-2.5,5.9-3.3,9.1-1.9l79.4,33.1c3.1,1.3,5,4.2,5,7.5C97.9,53.4,96,56.2,92.9,57.5z"/><text x="0" y="115" fill="#000000" font-size="5px" font-weight="bold" font-family="'Helvetica Neue', Helvetica, Arial-Unicode, Arial, Sans-serif">Created by Gregor Cresnar</text><text x="0" y="120" fill="#000000" font-size="5px" font-weight="bold" font-family="'Helvetica Neue', Helvetica, Arial-Unicode, Arial, Sans-serif">from the Noun Project</text></svg>